  0
SECTION
  2
HEADER
  9
$ACADVER
  1
AC1014
  9
$HANDSEED
  5
FFFF
  9
$MEASUREMENT
 70
     1
  0
ENDSEC
  0
SECTION
  2
TABLES
  0
TABLE
  2
VPORT
  5
8
330
0
100
AcDbSymbolTable
 70
     4
  0
VPORT
  5
2E
330
8
100
AcDbSymbolTableRecord
100
AcDbViewportTableRecord
  2
*ACTIVE
 70
     0
 10
0.0
 20
0.0
 11
1.0
 21
1.0
 12
210.0
 22
148.5
 13
0.0
 23
0.0
 14
10.0
 24
10.0
 15
10.0
 25
10.0
 16
0.0
 26
0.0
 36
1.0
 17
0.0
 27
0.0
 37
0.0
 40
341.0
 41
1.24
 42
50.0
 43
0.0
 44
0.0
 50
0.0
 51
0.0
 71
     0
 72
   100
 73
     1
 74
     3
 75
     0
 76
     0
 77
     0
 78
     0
  0
ENDTAB
  0
TABLE
  2
LTYPE
  5
5
330
0
100
AcDbSymbolTable
 70
     1
  0
LTYPE
  5
14
330
5
100
AcDbSymbolTableRecord
100
AcDbLinetypeTableRecord
  2
BYBLOCK
 70
     0
  3

 72
    65
 73
     0
 40
0.0
  0
LTYPE
  5
15
330
5
100
AcDbSymbolTableRecord
100
AcDbLinetypeTableRecord
  2
BYLAYER
 70
     0
  3

 72
    65
 73
     0
 40
0.0
  0
LTYPE
  5
16
330
5
100
AcDbSymbolTableRecord
100
AcDbLinetypeTableRecord
  2
CONTINUOUS
 70
     0
  3
Solid line
 72
    65
 73
     0
 40
0.0
  0
ENDTAB
  0
TABLE
  2
LAYER
  5
2
100
AcDbSymbolTable
 70
1
  0
LAYER
  5
50
100
AcDbSymbolTableRecord
100
AcDbLayerTableRecord
  2
0
 70
0
  6
CONTINUOUS
  0
ENDTAB
  0
TABLE
  2
STYLE
  5
3
330
0
100
AcDbSymbolTable
 70
     1
  0
STYLE
  5
11
330
3
100
AcDbSymbolTableRecord
100
AcDbTextStyleTableRecord
  2
STANDARD
 70
     0
 40
0.0
 41
1.0
 50
0.0
 71
     0
 42
2.5
  3
txt
  4

  0
ENDTAB
  0
TABLE
  2
VIEW
  5
6
330
0
100
AcDbSymbolTable
 70
     0
  0
ENDTAB
  0
TABLE
  2
UCS
  5
7
330
0
100
AcDbSymbolTable
 70
     0
  0
ENDTAB
  0
TABLE
  2
APPID
  5
9
330
0
100
AcDbSymbolTable
 70
     2
  0
APPID
  5
12
330
9
100
AcDbSymbolTableRecord
100
AcDbRegAppTableRecord
  2
ACAD
 70
     0
  0
ENDTAB
  0
TABLE
  2
DIMSTYLE
  5
A
330
0
100
AcDbSymbolTable
 70
     1
  0
DIMSTYLE
105
27
330
A
100
AcDbSymbolTableRecord
100
AcDbDimStyleTableRecord
  2
ISO-25
 70
     0
  3

  4

  5

  6

  7

 40
1.0
 41
2.5
 42
0.625
 43
3.75
 44
1.25
 45
0.0
 46
0.0
 47
0.0
 48
0.0
140
2.5
141
2.5
142
0.0
143
0.03937007874016
144
1.0
145
0.0
146
1.0
147
0.625
 71
     0
 72
     0
 73
     0
 74
     0
 75
     0
 76
     0
 77
     1
 78
     8
170
     0
171
     3
172
     1
173
     0
174
     0
175
     0
176
     0
177
     0
178
     0
270
     2
271
     2
272
     2
273
     2
274
     3
340
11
275
     0
280
     0
281
     0
282
     0
283
     0
284
     8
285
     0
286
     0
287
     3
288
     0
  0
ENDTAB
  0
TABLE
  2
BLOCK_RECORD
  5
1
330
0
100
AcDbSymbolTable
 70
     1
  0
BLOCK_RECORD
  5
1F
330
1
100
AcDbSymbolTableRecord
100
AcDbBlockTableRecord
  2
*MODEL_SPACE
  0
BLOCK_RECORD
  5
1B
330
1
100
AcDbSymbolTableRecord
100
AcDbBlockTableRecord
  2
*PAPER_SPACE
  0
ENDTAB
  0
ENDSEC
  0
SECTION
  2
BLOCKS
  0
BLOCK
  5
20
330
1F
100
AcDbEntity
  8
0
100
AcDbBlockBegin
  2
*MODEL_SPACE
 70
     0
 10
0.0
 20
0.0
 30
0.0
  3
*MODEL_SPACE
  1

  0
ENDBLK
  5
21
330
1F
100
AcDbEntity
  8
0
100
AcDbBlockEnd
  0
BLOCK
  5
1C
330
1B
100
AcDbEntity
 67
     1
  8
0
100
AcDbBlockBegin
  2
*PAPER_SPACE
  1

  0
ENDBLK
  5
1D
330
1B
100
AcDbEntity
 67
     1
  8
0
100
AcDbBlockEnd
  0
ENDSEC
  0
SECTION
  2
ENTITIES
  0
LWPOLYLINE
  5
100
100
AcDbEntity
  8
0
 62
7
100
AcDbPolyline
 90
207
 70
0
 10
593.352945
 20
629.491303
 30
0.0
 10
1127.136998
 20
481.375095
 30
0.0
 10
1129.930465
 20
480.741024
 30
0.0
 10
1136.125567
 20
479.247747
 30
0.0
 10
1139.474369
 20
478.370595
 30
0.0
 10
1142.444347
 20
477.508669
 30
0.0
 10
1144.625757
 20
476.738645
 30
0.0
 10
1145.292703
 20
476.412056
 30
0.0
 10
1145.608853
 20
476.137197
 30
0.0
 10
1146.073008
 20
475.202967
 30
0.0
 10
1146.543676
 20
474.105188
 30
0.0
 10
1146.897027
 20
472.899285
 30
0.0
 10
1147.009231
 20
471.640683
 30
0.0
 10
1146.909862
 20
470.740235
 30
0.0
 10
1146.699418
 20
469.680710
 30
0.0
 10
1146.098583
 20
467.428567
 30
0.0
 10
1145.250052
 20
464.800910
 30
0.0
 10
1143.433152
 20
456.801179
 30
0.0
 10
1142.950323
 20
455.814654
 30
0.0
 10
1141.901580
 20
453.854393
 30
0.0
 10
1141.528080
 20
453.348114
 30
0.0
 10
1141.062585
 20
452.935041
 30
0.0
 10
1140.521196
 20
452.611042
 30
0.0
 10
1139.920012
 20
452.371985
 30
0.0
 10
1138.602658
 20
452.132164
 30
0.0
 10
1137.239320
 20
452.182515
 30
0.0
 10
1135.807195
 20
452.470000
 30
0.0
 10
1134.267492
 20
452.881316
 30
0.0
 10
1132.534873
 20
453.410002
 30
0.0
 10
1084.872963
 20
466.532940
 30
0.0
 10
1082.438428
 20
466.857521
 30
0.0
 10
1079.807212
 20
467.125672
 30
0.0
 10
1076.599545
 20
467.342105
 30
0.0
 10
1073.090063
 20
467.415102
 30
0.0
 10
1069.553401
 20
467.252946
 30
0.0
 10
1067.860701
 20
467.055024
 30
0.0
 10
1066.264194
 20
466.763920
 30
0.0
 10
1064.798211
 20
466.368168
 30
0.0
 10
1063.497080
 20
465.856304
 30
0.0
 10
1061.692737
 20
464.942172
 30
0.0
 10
1059.910069
 20
463.925341
 30
0.0
 10
1058.158397
 20
462.810658
 30
0.0
 10
1056.447039
 20
461.602969
 30
0.0
 10
1054.785315
 20
460.307121
 30
0.0
 10
1053.182545
 20
458.927961
 30
0.0
 10
1051.648048
 20
457.470335
 30
0.0
 10
1050.191144
 20
455.939090
 30
0.0
 10
1048.821151
 20
454.339073
 30
0.0
 10
1047.547390
 20
452.675130
 30
0.0
 10
1046.379181
 20
450.952108
 30
0.0
 10
1045.325841
 20
449.174854
 30
0.0
 10
1044.396692
 20
447.348215
 30
0.0
 10
1043.601052
 20
445.477036
 30
0.0
 10
1042.948241
 20
443.566165
 30
0.0
 10
1042.447579
 20
441.620449
 30
0.0
 10
1041.889205
 20
438.642724
 30
0.0
 10
1041.467811
 20
435.453784
 30
0.0
 10
1041.222637
 20
432.100400
 30
0.0
 10
1041.192921
 20
428.629345
 30
0.0
 10
1041.417905
 20
425.087389
 30
0.0
 10
1041.936826
 20
421.521304
 30
0.0
 10
1042.318776
 20
419.743830
 30
0.0
 10
1042.788926
 20
417.977862
 30
0.0
 10
1043.352179
 20
416.229248
 30
0.0
 10
1044.013442
 20
414.503834
 30
0.0
 10
1045.349185
 20
411.585271
 30
0.0
 10
1046.732660
 20
409.111394
 30
0.0
 10
1048.176144
 20
407.011687
 30
0.0
 10
1049.691914
 20
405.215635
 30
0.0
 10
1051.292244
 20
403.652722
 30
0.0
 10
1052.989412
 20
402.252431
 30
0.0
 10
1054.795692
 20
400.944247
 30
0.0
 10
1056.723361
 20
399.657653
 30
0.0
 10
1059.122105
 20
398.235473
 30
0.0
 10
1061.825749
 20
396.873889
 30
0.0
 10
1064.770867
 20
395.577200
 30
0.0
 10
1067.894035
 20
394.349707
 30
0.0
 10
1071.131830
 20
393.195707
 30
0.0
 10
1074.420825
 20
392.119500
 30
0.0
 10
1080.898723
 20
390.217662
 30
0.0
 10
1086.820332
 20
388.678586
 30
0.0
 10
1091.678258
 20
387.536664
 30
0.0
 10
1096.173473
 20
386.581855
 30
0.0
 10
1096.702939
 20
386.382910
 30
0.0
 10
1097.131230
 20
386.133953
 30
0.0
 10
1097.467592
 20
385.843654
 30
0.0
 10
1097.721274
 20
385.520686
 30
0.0
 10
1098.017582
 20
384.811431
 30
0.0
 10
1098.094131
 20
384.075562
 30
0.0
 10
1098.024895
 20
383.382456
 30
0.0
 10
1097.883852
 20
382.801486
 30
0.0
 10
1097.682246
 20
382.253460
 30
0.0
 10
1048.789330
 20
315.588776
 30
0.0
 10
1046.888737
 20
316.006629
 30
0.0
 10
1042.237793
 20
317.214627
 30
0.0
 10
1039.373520
 20
318.093572
 30
0.0
 10
1036.412754
 20
319.144424
 30
0.0
 10
1033.552528
 20
320.358639
 30
0.0
 10
1030.989874
 20
321.727674
 30
0.0
 10
1030.191373
 20
322.045825
 30
0.0
 10
1028.881789
 20
322.339661
 30
0.0
 10
1027.122372
 20
322.581994
 30
0.0
 10
1024.974375
 20
322.745631
 30
0.0
 10
1022.499049
 20
322.803384
 30
0.0
 10
1019.757644
 20
322.728063
 30
0.0
 10
1016.811413
 20
322.492477
 30
0.0
 10
1013.721605
 20
322.069437
 30
0.0
 10
1010.549474
 20
321.431752
 30
0.0
 10
1007.356269
 20
320.552233
 30
0.0
 10
1004.203243
 20
319.403690
 30
0.0
 10
1002.660938
 20
318.720037
 30
0.0
 10
1001.151646
 20
317.958932
 30
0.0
 10
999.683025
 20
317.116976
 30
0.0
 10
998.262731
 20
316.190770
 30
0.0
 10
996.898419
 20
315.176916
 30
0.0
 10
995.597747
 20
314.072014
 30
0.0
 10
994.368371
 20
312.872667
 30
0.0
 10
993.217947
 20
311.575474
 30
0.0
 10
992.154132
 20
310.177038
 30
0.0
 10
991.184582
 20
308.673960
 30
0.0
 10
989.428959
 20
305.508955
 30
0.0
 10
987.921659
 20
302.371393
 30
0.0
 10
986.665128
 20
299.259078
 30
0.0
 10
985.661811
 20
296.169817
 30
0.0
 10
984.914153
 20
293.101413
 30
0.0
 10
984.424600
 20
290.051671
 30
0.0
 10
984.195596
 20
287.018397
 30
0.0
 10
984.229588
 20
283.999395
 30
0.0
 10
984.529019
 20
280.992471
 30
0.0
 10
985.096336
 20
277.995428
 30
0.0
 10
985.933984
 20
275.006073
 30
0.0
 10
987.044408
 20
272.022209
 30
0.0
 10
988.430053
 20
269.041642
 30
0.0
 10
990.093364
 20
266.062177
 30
0.0
 10
992.036787
 20
263.081618
 30
0.0
 10
994.262767
 20
260.097771
 30
0.0
 10
994.956815
 20
259.315913
 30
0.0
 10
995.779133
 20
258.551084
 30
0.0
 10
997.769148
 20
257.074562
 30
0.0
 10
1000.153958
 20
255.672291
 30
0.0
 10
1002.854708
 20
254.348359
 30
0.0
 10
1005.792545
 20
253.106853
 30
0.0
 10
1008.888615
 20
251.951861
 30
0.0
 10
1012.064064
 20
250.887470
 30
0.0
 10
1015.240038
 20
249.917767
 30
0.0
 10
1021.278147
 20
248.278774
 30
0.0
 10
1026.372111
 20
247.067582
 30
0.0
 10
1031.204279
 20
246.059390
 30
0.0
 10
1039.431371
 20
220.319487
 30
0.0
 10
1045.220803
 20
201.971548
 30
0.0
 10
1047.223613
 20
195.460938
 30
0.0
 10
1048.132439
 20
192.262229
 30
0.0
 10
1049.194935
 20
186.746582
 30
0.0
 10
1050.044793
 20
181.408431
 30
0.0
 10
1050.609490
 20
176.271291
 30
0.0
 10
1050.762242
 20
173.785447
 30
0.0
 10
1050.816508
 20
171.358673
 30
0.0
 10
1050.763224
 20
168.993908
 30
0.0
 10
1050.593324
 20
166.694091
 30
0.0
 10
1050.297744
 20
164.462162
 30
0.0
 10
1049.867419
 20
162.301059
 30
0.0
 10
1049.293283
 20
160.213721
 30
0.0
 10
1048.566272
 20
158.203089
 30
0.0
 10
1047.677320
 20
156.272100
 30
0.0
 10
1046.617362
 20
154.423693
 30
0.0
 10
1043.674891
 20
150.078487
 30
0.0
 10
1040.641865
 20
146.128153
 30
0.0
 10
1037.555672
 20
142.590804
 30
0.0
 10
1034.453699
 20
139.484551
 30
0.0
 10
1031.373332
 20
136.827505
 30
0.0
 10
1029.852935
 20
135.673095
 30
0.0
 10
1028.351960
 20
134.637778
 30
0.0
 10
1026.875080
 20
133.723818
 30
0.0
 10
1025.426969
 20
132.933480
 30
0.0
 10
1024.012301
 20
132.269027
 30
0.0
 10
1022.635748
 20
131.732723
 30
0.0
 10
1020.944476
 20
131.205271
 30
0.0
 10
1019.247534
 20
130.791942
 30
0.0
 10
1017.548813
 20
130.486347
 30
0.0
 10
1015.852208
 20
130.282103
 30
0.0
 10
1014.161610
 20
130.172823
 30
0.0
 10
1012.480914
 20
130.152120
 30
0.0
 10
1009.164795
 20
130.350905
 30
0.0
 10
1005.934995
 20
130.827371
 30
0.0
 10
1002.822657
 20
131.530429
 30
0.0
 10
999.858924
 20
132.408993
 30
0.0
 10
997.074941
 20
133.411975
 30
0.0
 10
994.501850
 20
134.488286
 30
0.0
 10
992.170794
 20
135.586840
 30
0.0
 10
988.359364
 20
137.646326
 30
0.0
 10
985.889798
 20
139.181731
 30
0.0
 10
985.011244
 20
139.784355
 30
0.0
 10
886.261587
 20
256.115169
 30
0.0
 10
578.794568
 20
565.237191
 30
0.0
 10
578.460288
 20
565.799578
 30
0.0
 10
578.253718
 20
566.666929
 30
0.0
 10
578.167180
 20
567.818072
 30
0.0
 10
578.192994
 20
569.231837
 30
0.0
 10
578.550962
 20
572.762555
 30
0.0
 10
579.266186
 20
577.089720
 30
0.0
 10
580.277234
 20
582.043973
 30
0.0
 10
581.522671
 20
587.455952
 30
0.0
 10
584.470976
 20
598.975646
 30
0.0
 10
587.619629
 20
610.293915
 30
0.0
 10
590.477156
 20
620.055872
 30
0.0
 10
593.352945
 20
629.491303
 30
0.0
 10
593.352945
 20
629.491303
 30
0.0
  0
ENDSEC
  0
SECTION
  2
OBJECTS
  0
DICTIONARY
  5
C
330
0
100
AcDbDictionary
  3
ACAD_GROUP
350
D
  3
ACAD_MLINESTYLE
350
17
  0
DICTIONARY
  5
D
330
C
100
AcDbDictionary
  0
DICTIONARY
  5
1A
330
C
100
AcDbDictionary
  0
DICTIONARY
  5
17
330
C
100
AcDbDictionary
  3
STANDARD
350
18
  0
DICTIONARY
  5
19
330
C
100
AcDbDictionary
  0
ENDSEC
  0
EOF
